<?xml version="1.0" encoding="UTF-8" standalone="no"?>
<!-- Created with Inkscape (http://www.inkscape.org/) -->

<svg
   width="148.15071mm"
   height="39.626286mm"
   viewBox="0 0 148.15071 39.626285"
   version="1.1"
   id="svg1"
   sodipodi:docname="Logo.svg"
   inkscape:version="1.4.2 (f4327f4, 2025-05-13)"
   xmlns:inkscape="http://www.inkscape.org/namespaces/inkscape"
   xmlns:sodipodi="http://sodipodi.sourceforge.net/DTD/sodipodi-0.dtd"
   xmlns="http://www.w3.org/2000/svg"
   xmlns:svg="http://www.w3.org/2000/svg">
  <sodipodi:namedview
     id="namedview1"
     pagecolor="#ffffff"
     bordercolor="#000000"
     borderopacity="0.25"
     inkscape:showpageshadow="2"
     inkscape:pageopacity="0.0"
     inkscape:pagecheckerboard="0"
     inkscape:deskcolor="#d1d1d1"
     inkscape:document-units="mm"
     inkscape:zoom="1.1213901"
     inkscape:cx="172.99957"
     inkscape:cy="88.72916"
     inkscape:window-width="1920"
     inkscape:window-height="1009"
     inkscape:window-x="-8"
     inkscape:window-y="-8"
     inkscape:window-maximized="1"
     inkscape:current-layer="g1243" />
  <defs
     id="defs1">
    <filter
       style="color-interpolation-filters:sRGB"
       id="filter1239"
       x="0"
       y="0"
       width="1"
       height="1">
      <feColorMatrix
         values="0 0 0 0 0 0 0 0 0 0 0 0 0 0 0 -0.01 -0.92 0.33 1.2 0 "
         id="feColorMatrix1239" />
    </filter>
    <rect
       x="762"
       y="158"
       width="132"
       height="202"
       id="rect6" />
  </defs>
  <g
     id="layer1"
     transform="translate(-37.474031,-43.459467)">
    <g
       id="g11"
       transform="translate(-6.1373655,-0.06824721)">
      <path
         id="rect10"
         style="fill:#ffffff;fill-opacity:1;stroke:#000000;stroke-width:0;stroke-linejoin:round"
         d="m 48.293121,82.247247 c -1.350315,-39.256578 -1.350315,-39.256578 0,0 z M 65.690509,44.435085 c 0.185284,0.0044 0.37056,0.03243 0.552421,0.08578 0.451202,0.132361 0.62921,0.240532 1.155485,0.7028 0.456679,0.401137 0.666954,0.717769 0.746724,1.124996 0.02304,0.117389 0.02357,1.076214 0.0016,2.130619 -0.08503,4.077828 -0.157467,9.347986 -0.129707,9.416996 0.04781,0.118831 0.35337,0.09102 0.486792,-0.04444 0.152668,-0.154991 0.193877,-0.351047 0.233577,-1.116727 0.03496,-0.674242 0.247026,-3.830269 0.332796,-4.950603 0.02768,-0.361565 0.08605,-1.249357 0.129708,-1.972489 0.09763,-1.617405 0.127932,-1.809352 0.355534,-2.249475 0.407049,-0.787125 1.368011,-1.258058 2.232939,-1.09399 0.507026,0.09618 0.884051,0.301295 1.37666,0.748791 0.466173,0.423482 0.613519,0.652635 0.702799,1.09399 0.04158,0.205523 -0.05847,2.379806 -0.176733,3.838009 -0.17595,2.169377 -0.424847,5.600232 -0.441317,6.086967 l -0.01137,0.341064 0.155546,0.01447 c 0.121314,0.01152 0.184351,-0.01779 0.286288,-0.133325 0.142159,-0.161135 0.210535,-0.41862 0.291455,-1.098641 0.02868,-0.241044 0.107886,-0.909354 0.176216,-1.485181 0.165451,-1.394245 0.420078,-3.281825 0.514698,-3.815271 0.04203,-0.236944 0.137363,-0.549405 0.211873,-0.694531 0.168787,-0.328768 0.592666,-0.716518 0.956531,-0.875399 0.879213,-0.383904 1.67953,-0.211143 2.495455,0.538468 0.2891,0.265605 0.439616,0.449771 0.548803,0.672311 0.222107,0.452688 0.234981,0.740138 0.08113,1.788521 -0.249934,1.703176 -0.611052,5.147699 -0.923974,8.813932 -0.211417,2.47698 -0.232396,2.720779 -0.312126,3.57911 -0.193897,2.087368 -0.670009,4.499026 -1.332735,6.111255 -0.4649,1.130974 -3.271633,1.919801 -3.512107,2.761842 -1.649228,5.774911 3.288271,5.440052 -6.195828,5.454194 -5.612255,0.0084 -7.61757,-0.0033 -7.69307,-0.04444 -0.204596,-0.111356 -0.623745,-0.580314 -0.677995,-0.75861 -0.03453,-0.113464 -0.05492,-0.761361 -0.05478,-1.725476 2.51e-4,-1.736787 -0.02973,-1.934493 -0.396875,-2.633948 -0.289456,-0.551451 -0.607086,-0.921364 -1.576648,-1.83658 -1.270279,-1.199079 -1.954629,-1.965904 -2.717147,-3.043225 -0.71996,-1.017193 -1.106469,-1.822423 -2.337325,-4.86947 -0.162282,-0.401741 -0.370444,-0.916982 -0.462504,-1.144633 -0.539987,-1.335254 -1.565503,-3.93619 -1.701188,-4.314982 -0.169271,-0.472549 -0.187581,-0.654502 -0.110071,-1.105876 0.09801,-0.570769 0.449965,-1.078069 0.963249,-1.389579 0.885114,-0.537174 2.085732,-0.319393 3.054077,0.553971 0.160873,0.145093 0.320974,0.274154 0.355534,0.286804 0.152494,0.05581 0.621954,0.745642 0.964282,1.416968 1.729958,3.392567 1.882822,3.639914 2.413806,3.909839 0.379608,0.192975 0.975905,0.341255 1.030945,0.256315 0.104265,-0.160901 0.228316,-3.480014 0.187586,-5.018298 -0.04172,-1.576038 -0.164008,-4.10211 -0.287321,-5.94124 -0.149314,-2.226876 -0.218384,-3.740599 -0.197404,-4.325317 0.01705,-0.47524 0.03473,-0.553981 0.188102,-0.851111 0.288448,-0.558828 0.815019,-0.975467 1.422135,-1.125513 0.549266,-0.135747 1.092809,-0.06738 1.613855,0.203089 0.378063,0.196253 1.131441,0.912241 1.257805,1.195276 0.176227,0.394723 0.229726,1.0704 0.487825,6.169649 0.118031,2.331878 0.181361,3.552384 0.199471,3.84731 0.0063,0.102935 0.03547,0.123986 0.190686,0.136426 0.250551,0.02008 0.485003,-0.166987 0.523483,-0.417546 0.01535,-0.09997 0.04015,-1.441729 0.05529,-2.98173 0.07283,-7.407045 0.08978,-8.459473 0.138493,-8.6434 0.08738,-0.329985 0.348125,-0.740561 0.635104,-0.999422 0.433136,-0.390699 0.985658,-0.592613 1.541508,-0.579293 z" />
      <path
         id="path1226-5"
         style="fill:#ffcf42;fill-opacity:1;stroke-width:0.188455"
         d="m 65.715718,44.435118 c -0.555849,-0.01332 -1.107856,0.189109 -1.540992,0.579809 -0.286979,0.258861 -0.547723,0.669437 -0.635103,0.999422 -0.0487,0.183927 -0.06566,1.236355 -0.138493,8.6434 -0.01514,1.540001 -0.04046,2.881761 -0.05581,2.981731 -0.03848,0.250559 -0.272415,0.437108 -0.522966,0.417028 -0.15522,-0.01244 -0.184903,-0.03349 -0.191203,-0.136425 -0.01811,-0.294926 -0.08144,-1.514916 -0.199471,-3.846794 -0.258099,-5.099249 -0.311598,-5.774926 -0.487825,-6.169649 -0.126364,-0.283035 -0.879742,-0.999023 -1.257805,-1.195276 -0.521046,-0.27047 -1.064589,-0.338836 -1.613855,-0.203089 -0.607116,0.150046 -1.133687,0.566685 -1.422135,1.125513 -0.153373,0.29713 -0.170535,0.375871 -0.187585,0.851111 -0.02098,0.584718 0.04809,2.098441 0.197403,4.325317 0.123313,1.83913 0.245601,4.364685 0.287321,5.940723 0.04073,1.538284 -0.08384,4.857914 -0.188102,5.018815 -0.05504,0.08494 -0.651337,-0.06334 -1.030945,-0.256315 -0.530984,-0.269925 -0.683848,-0.517789 -2.413806,-3.910356 -0.342328,-0.671326 -0.811788,-1.361157 -0.964282,-1.416967 -0.03456,-0.01265 -0.194144,-0.141712 -0.355017,-0.286805 -0.968345,-0.873364 -2.16948,-1.091145 -3.054594,-0.553971 -0.513284,0.31151 -0.864722,0.819327 -0.962732,1.390096 -0.07751,0.451374 -0.05972,0.63281 0.109554,1.105359 0.135685,0.378792 1.161201,2.980245 1.701188,4.315499 0.09206,0.227651 0.300222,0.742375 0.462504,1.144116 1.230856,3.047047 1.617365,3.852794 2.337325,4.869987 0.762518,1.077321 1.447385,1.844146 2.717664,3.043225 0.969562,0.915216 1.28719,1.284613 1.576648,1.836064 0.367143,0.699455 0.396609,0.897677 0.396358,2.634464 -1.4e-4,0.964115 0.02076,1.611496 0.05529,1.72496 0.05425,0.178296 0.473399,0.647254 0.677995,0.75861 0.0755,0.04112 2.080819,0.05306 7.69307,0.04496 7.578258,-0.01094 7.591078,-0.01139 7.731828,-0.111621 0.07754,-0.05522 0.188597,-0.160681 0.246497,-0.234611 0.10073,-0.128583 0.106276,-0.217775 0.137976,-2.04432 0.04477,-2.577592 0.04763,-2.590823 0.903304,-4.302063 0.2517,-0.503376 0.56166,-1.189153 0.68833,-1.523938 0.61686,-1.630329 1.138843,-4.023887 1.332736,-6.111255 0.07973,-0.858331 0.10071,-1.102129 0.31212,-3.579109 0.31293,-3.666233 0.67404,-7.110757 0.92398,-8.813933 0.15388,-1.048383 0.14098,-1.335833 -0.08113,-1.788521 -0.10919,-0.22254 -0.25971,-0.406705 -0.54881,-0.67231 -0.815929,-0.749611 -1.616241,-0.921856 -2.495451,-0.537952 -0.36387,0.158881 -0.787741,0.546631 -0.956531,0.875399 -0.0745,0.145126 -0.169874,0.457586 -0.211874,0.694531 -0.09463,0.533446 -0.349247,2.421026 -0.514697,3.815271 -0.06834,0.575827 -0.147516,1.244137 -0.176216,1.485181 -0.08092,0.680021 -0.149296,0.937506 -0.291456,1.098641 -0.10194,0.115536 -0.164977,0.144845 -0.286287,0.133325 l -0.155546,-0.01499 0.01137,-0.340548 c 0.01648,-0.486735 0.26485,-3.91759 0.4408,-6.086967 0.11831,-1.458203 0.21885,-3.632486 0.17725,-3.838009 -0.08928,-0.441355 -0.236631,-0.671024 -0.7028,-1.094506 -0.49261,-0.447496 -0.86964,-0.652095 -1.37666,-0.748275 -0.86493,-0.164068 -1.825888,0.306348 -2.232938,1.093473 -0.2276,0.440123 -0.257934,0.632587 -0.355534,2.249992 -0.0436,0.723132 -0.102008,1.610408 -0.129708,1.971973 -0.08577,1.120334 -0.297896,4.27636 -0.332796,4.950602 -0.0397,0.76568 -0.08092,0.961737 -0.233578,1.116728 -0.13342,0.13546 -0.439509,0.163787 -0.487309,0.04496 -0.02776,-0.06901 0.04523,-5.339168 0.130225,-9.416996 0.0218,-1.054405 0.02093,-2.01323 -0.0021,-2.130619 -0.07977,-0.407227 -0.289528,-0.723859 -0.746208,-1.124996 -0.52627,-0.462268 -0.704275,-0.570439 -1.155485,-0.7028 -0.18186,-0.05335 -0.367655,-0.08186 -0.552937,-0.0863 z m -0.07648,1.579748 c 0.277301,-0.01008 0.550714,0.08459 0.731739,0.274402 0.4231,0.443634 0.346512,1.121201 -0.164848,1.456759 l -0.224793,0.147794 -0.001,1.081071 c -5e-4,0.594627 -0.0131,1.223245 -0.0279,1.397331 -0.02992,0.350874 -0.02714,0.356665 0.251664,0.555005 0.51466,0.366137 0.503789,1.142271 -0.02067,1.473295 -0.10681,0.06742 -0.206375,0.152792 -0.221175,0.189652 -0.0148,0.03686 -0.04131,1.366384 -0.05891,2.954342 l -0.03204,2.887162 0.210323,0.134876 c 0.1159,0.07432 0.256192,0.207812 0.311092,0.296622 l 0.09973,0.161748 1.620573,0.03101 1.62109,0.03101 0.09043,-0.10852 c 0.19483,-0.234024 0.424631,-0.43044 0.534851,-0.45682 0.14831,-0.03551 0.15144,-0.05106 0.21394,-1.23455 0.02901,-0.549044 0.101964,-1.57901 0.162264,-2.288749 l 0.109554,-1.29036 -0.23151,-0.219625 c -0.49192,-0.467797 -0.43295,-1.084636 0.14056,-1.470195 0.26909,-0.18087 0.25948,-0.14278 0.33538,-1.278475 l 0.05478,-0.825789 -0.20929,-0.165881 c -0.49155,-0.38943 -0.548499,-0.980728 -0.135909,-1.413351 0.5577,-0.584777 1.615405,-0.179108 1.615405,0.619601 0,0.378888 -0.181072,0.663768 -0.576192,0.906921 -0.06258,0.03851 -0.09091,0.226765 -0.135909,0.90072 -0.0313,0.468695 -0.06675,0.909872 -0.07855,0.980302 -0.01712,0.101855 0.02919,0.176879 0.226343,0.366903 0.51432,0.495719 0.44832,1.142566 -0.15503,1.519287 -0.19943,0.124499 -0.25063,0.184152 -0.25063,0.289905 0,0.07323 -0.05582,0.899299 -0.124024,1.836063 -0.06817,0.936763 -0.138879,1.936386 -0.156579,2.221053 l -0.03204,0.517281 0.17415,0.140044 c 0.21422,0.171891 0.345607,0.361634 0.388607,0.562239 0.01797,0.08382 0.0665,0.168492 0.108003,0.188102 0.04152,0.01961 0.719066,0.155358 1.505335,0.301274 l 1.42937,0.2651 0.167948,-0.137976 c 0.09231,-0.07598 0.247482,-0.170023 0.344682,-0.208773 0.09726,-0.03875 0.177434,-0.09899 0.178284,-0.133842 8.6e-4,-0.03484 0.07893,-0.56739 0.173633,-1.18339 l 0.172599,-1.119828 -0.176733,-0.158647 c -0.55094,-0.49364 -0.463536,-1.252436 0.182934,-1.588017 0.28261,-0.146706 0.263184,-0.09211 0.389124,-1.103292 l 0.08217,-0.658874 -0.254765,-0.242879 c -0.28353,-0.270628 -0.350271,-0.458927 -0.291971,-0.829924 0.0406,-0.258199 0.310448,-0.579536 0.575158,-0.685229 0.21379,-0.08536 0.595529,-0.08383 0.769979,0.0031 0.15697,0.07821 0.378838,0.29441 0.463538,0.451652 0.0315,0.0585 0.05736,0.235129 0.05736,0.392224 0,0.348242 -0.161292,0.618088 -0.485242,0.813387 l -0.213424,0.128675 -0.115238,0.855761 -0.115239,0.855245 0.177251,0.13901 c 0.23246,0.182759 0.343131,0.416403 0.343131,0.72347 0,0.421254 -0.216514,0.743354 -0.622184,0.926042 l -0.167432,0.07545 -0.171566,1.162203 -0.171565,1.162203 0.177767,0.176734 c 0.24327,0.242356 0.342614,0.448279 0.342614,0.712101 0,0.395365 -0.207705,0.696726 -0.612365,0.889868 -0.17021,0.08124 -0.180463,0.10166 -0.242363,0.47439 -0.30344,1.826607 -0.913872,4.705801 -1.703772,8.034651 -0.52154,2.197929 -0.497741,2.044301 -0.341581,2.204 0.20374,0.208342 0.261382,0.353422 0.258382,0.648539 -0.0039,0.398893 -0.17585,0.660576 -0.54932,0.835608 -0.496699,0.232782 -1.124408,0.0469 -1.365808,-0.404626 -0.01117,-0.0209 -0.02134,-0.04491 -0.03049,-0.07131 H 60.391495 c -0.115765,0.281669 -0.360616,0.485405 -0.691431,0.558106 -0.23647,0.05197 -0.294969,0.05607 -0.381889,0.02842 -0.02808,-0.0089 -0.113459,-0.02935 -0.190169,-0.04547 -0.187115,-0.03933 -0.49775,-0.305845 -0.58291,-0.500228 -0.09144,-0.208692 -0.08741,-0.637294 0.0078,-0.81132 0.04195,-0.07671 0.07648,-0.172587 0.07648,-0.212907 0,-0.07004 -0.15138,-0.310335 -1.634525,-2.594157 -0.822183,-1.26604 -2.027762,-3.1434 -2.704745,-4.212146 -0.288406,-0.455306 -0.550346,-0.843833 -0.581876,-0.863513 -0.03153,-0.01968 -0.144515,-0.03581 -0.251665,-0.03617 -0.10715,-4.1e-4 -0.245101,-0.02576 -0.306441,-0.05581 -0.164865,-0.08078 -0.391356,-0.292127 -0.473356,-0.441834 -0.10746,-0.196188 -0.09201,-0.616368 0.02997,-0.807186 0.05606,-0.08769 0.101788,-0.186278 0.101286,-0.219108 -5.01e-4,-0.03283 -0.273036,-0.541462 -0.605131,-1.13068 l -0.60358,-1.071769 -0.252698,-0.02997 c -0.576352,-0.06838 -0.886251,-0.38097 -0.886251,-0.894002 0,-0.318671 0.07944,-0.489295 0.324528,-0.694531 0.815036,-0.68252 1.978642,0.147737 1.506368,1.07487 l -0.108521,0.213423 0.615983,1.090373 0.6165,1.090373 0.251148,0.05426 c 0.138231,0.02978 0.318619,0.09207 0.401009,0.138493 0.385563,0.217226 0.53614,0.752958 0.327112,1.164787 l -0.111105,0.219108 1.211813,1.889807 c 1.923408,2.999767 3.608816,5.583798 3.731038,5.719547 0.04612,0.05122 0.179482,0.08678 0.374654,0.100253 0.467163,0.03223 0.798628,0.330481 0.856279,0.752925 h 11.453564 c 0.0069,-0.07468 0.0202,-0.142055 0.04082,-0.193786 0.0968,-0.242844 0.361635,-0.468593 0.639754,-0.545703 l 0.267684,-0.07441 0.08268,-0.351917 c 0.04556,-0.193428 0.219868,-0.921124 0.387057,-1.617472 0.63723,-2.654159 1.336821,-5.855598 1.665531,-7.621241 l 0.14056,-0.754475 -0.233061,-0.221692 c -0.12829,-0.121831 -0.24835,-0.286313 -0.26665,-0.365353 -0.05672,-0.24447 -0.07002,-0.265268 -0.189653,-0.306958 -0.0639,-0.02227 -0.737921,-0.157621 -1.4981,-0.300757 l -1.382344,-0.260449 -0.213424,0.163815 c -0.24431,0.187259 -0.631265,0.248501 -0.944645,0.149861 -0.16349,-0.05146 -0.437298,-0.294072 -0.570508,-0.505395 -0.04525,-0.07179 -0.23391,-0.08445 -1.65933,-0.109554 -0.88456,-0.01557 -1.632181,-0.01018 -1.660881,0.01188 -0.02873,0.02207 -0.09261,0.101003 -0.14211,0.175183 -0.0495,0.07418 -0.184203,0.200267 -0.299723,0.280087 -0.17114,0.118241 -0.261352,0.144694 -0.485242,0.144694 -0.430135,0 -0.581562,-0.08034 -0.946712,-0.503846 l -0.119889,-0.139526 -1.58595,0.03617 -1.585433,0.03566 -0.17415,0.225309 c -0.455285,0.589704 -1.243595,0.582599 -1.649511,-0.01447 -0.09936,-0.146136 -0.132292,-0.257389 -0.132292,-0.449068 0,-0.346157 0.06723,-0.489371 0.341065,-0.729155 l 0.23306,-0.204121 -0.08785,-1.185975 c -0.04832,-0.652138 -0.125762,-1.718153 -0.172082,-2.369364 l -0.08423,-1.184424 -0.246496,-0.170532 c -0.561401,-0.388344 -0.589994,-1.109715 -0.05994,-1.513086 0.173521,-0.13205 0.178799,-0.145779 0.1788,-0.473873 0,-0.185962 -0.02438,-0.646205 -0.05426,-1.022676 -0.0423,-0.533058 -0.07268,-0.695369 -0.135909,-0.733289 -0.195227,-0.117083 -0.434156,-0.34245 -0.508496,-0.479557 -0.100782,-0.185869 -0.100461,-0.608781 5.17e-4,-0.793234 0.191428,-0.34968 0.620801,-0.582292 0.97255,-0.526582 0.2676,0.04238 0.431078,0.123616 0.599964,0.297656 0.202477,0.208654 0.248563,0.324645 0.248563,0.624251 0,0.331236 -0.08257,0.495714 -0.365352,0.726571 l -0.214974,0.1757 0.06408,0.978234 c 0.0352,0.538084 0.07633,1.009345 0.09147,1.046965 0.01513,0.03762 0.05958,0.06821 0.0987,0.06821 0.03912,0 0.160389,0.08535 0.269751,0.189652 0.298082,0.284298 0.370298,0.747831 0.171566,1.101742 -0.02972,0.05293 -0.148903,0.180102 -0.264584,0.282153 l -0.210323,0.185519 0.02894,0.301273 c 0.01583,0.165774 0.09698,1.230975 0.180351,2.367298 0.08336,1.13632 0.157114,2.070642 0.163814,2.075842 0.0067,0.0052 0.08584,0.04479 0.1757,0.08837 0.08986,0.04358 0.25038,0.180811 0.357084,0.304374 l 0.194304,0.224275 1.606103,-0.02377 c 1.301582,-0.01928 1.610244,-0.03618 1.628324,-0.09043 0.0206,-0.0618 0.401472,-0.430424 0.580844,-0.56224 0.06698,-0.04924 0.08038,-0.43903 0.101285,-2.921785 0.013,-1.575708 0.01513,-2.886738 0.0041,-2.913518 -0.011,-0.02678 -0.112548,-0.109835 -0.225309,-0.184485 -0.507506,-0.335966 -0.528038,-1.088036 -0.03979,-1.461926 0.09526,-0.07295 0.198347,-0.151773 0.228927,-0.175183 0.0559,-0.04281 0.143934,-2.720056 0.09353,-2.845304 -0.01328,-0.03301 -0.102574,-0.100869 -0.198954,-0.150379 -0.24728,-0.12701 -0.432232,-0.40235 -0.469222,-0.700215 -0.04472,-0.360116 0.153249,-0.736923 0.484208,-0.921908 0.150123,-0.08391 0.317828,-0.127794 0.484208,-0.133842 z" />
    </g>
    <g
       id="g1243"
       transform="rotate(-90,158.61234,135.1995)"
       style="fill:#ffffff">
      <text
         xml:space="preserve"
         transform="matrix(0,0.90266977,-0.90266977,0,372.52249,-633.98965)"
         id="text5"
         style="font-size:15.6326px;line-height:0;text-align:start;letter-spacing:1.46556px;word-spacing:0px;writing-mode:lr-tb;direction:ltr;white-space:pre;shape-inside:url(#rect6);display:inline;fill:#ffffff;stroke:#000000;stroke-width:1.88976;stroke-linejoin:round;stroke-dasharray:none"
         x="0"
         y="0"><tspan
           x="762"
           y="162.45334"
           id="tspan4"><tspan
             style="font-weight:300;font-family:'Segoe UI';-inkscape-font-specification:'Segoe UI Light';stroke:#ffffff"
             id="tspan3">Gesturesphone</tspan></tspan></text>
    </g>
  </g>
</svg>
